<?xml version="1.0" encoding="UTF-8"?>
<svg width="278px" height="47px" viewBox="0 0 278 47" version="1.1" xmlns="http://www.w3.org/2000/svg" xmlns:xlink="http://www.w3.org/1999/xlink">
    <!-- Generator: Sketch 62 (91390) - https://sketch.com -->
    <title>Group 58</title>
    <desc>Created with Sketch.</desc>
    <g id="Page-1" stroke="none" stroke-width="1" fill="none" fill-rule="evenodd">
        <g id="Group-58" transform="translate(0.000000, -1.000000)">
            <path d="M74.5776367,38 C76.0883789,38 77.4055176,37.8000488 78.5290527,37.4001465 C79.6525879,37.0002441 80.5380859,36.4543457 81.1855469,35.7624512 C81.8330078,35.0705566 82.3122559,34.3056641 82.623291,33.4677734 C82.9343262,32.6298828 83.0898438,31.7158203 83.0898438,30.7255859 C83.0898438,28.7324219 82.4519043,27.1391602 81.1760254,25.9458008 C79.9001465,24.7524414 78.1767578,24.0732422 76.0058594,23.9082031 L76.0058594,23.8320312 C77.2373047,23.7558594 78.3195801,23.4067383 79.2526855,22.784668 C80.185791,22.1625977 80.8776855,21.416748 81.3283691,20.5471191 C81.7790527,19.6774902 82.0043945,18.7792969 82.0043945,17.8525391 C82.0043945,15.6308594 81.2553711,13.9296875 79.7573242,12.7490234 C78.2592773,11.5683594 75.8598633,10.9780273 72.559082,10.9780273 L65.6464844,10.9780273 C65.3291016,10.9780273 65.0498047,11.0859375 64.8085938,11.3017578 C64.5673828,11.5175781 64.4467773,11.7841797 64.4467773,12.1015625 L64.4467773,36.8574219 C64.4467773,37.1875 64.5673828,37.4604492 64.8085938,37.6762695 C65.0498047,37.8920898 65.3291016,38 65.6464844,38 L74.5776367,38 Z M72.578125,23.1083984 L66.7319336,23.1083984 L66.7319336,12.7871094 L72.8066406,12.7871094 C77.4023438,12.7871094 79.7001953,14.4375 79.7001953,17.7382812 C79.7001953,21.3183594 77.3261719,23.1083984 72.578125,23.1083984 Z M73.8540039,36.152832 L66.7319336,36.152832 L66.7319336,24.9174805 L72.5209961,24.9174805 C75.237793,24.9174805 77.2658691,25.3554688 78.6052246,26.2314453 C79.9445801,27.1074219 80.6142578,28.4975586 80.6142578,30.4018555 C80.6142578,32.5219727 80.0810547,34.010498 79.0146484,34.8674316 C77.9482422,35.7243652 76.2280273,36.152832 73.8540039,36.152832 Z M95.9982835,38.4760742 C97.2424241,38.4760742 98.4103928,38.2666016 99.5021897,37.8476562 C100.593987,37.4287109 101.565178,36.8225098 102.415764,36.0290527 C103.26635,35.2355957 103.936028,34.2009277 104.424797,32.9250488 C104.913567,31.6491699 105.157951,30.2050781 105.157951,28.5927734 C105.157951,27.03125 104.91674,25.6157227 104.434319,24.3461914 C103.951897,23.0766602 103.29174,22.0356445 102.45385,21.2231445 C101.615959,20.4106445 100.647942,19.7885742 99.5497971,19.3569336 C98.4516526,18.925293 97.2678147,18.7094727 95.9982835,18.7094727 C94.7414475,18.7094727 93.5671311,18.9221191 92.4753342,19.3474121 C91.3835374,19.7727051 90.4155198,20.3884277 89.5712815,21.1945801 C88.7270432,22.0007324 88.0637132,23.0385742 87.5812913,24.3081055 C87.0988694,25.5776367 86.8576585,27.0058594 86.8576585,28.5927734 C86.8576585,30.1923828 87.1020432,31.630127 87.5908128,32.9060059 C88.0795823,34.1818848 88.74926,35.2197266 89.599846,36.0195312 C90.4504319,36.8193359 91.4184495,37.4287109 92.5038987,37.8476562 C93.5893479,38.2666016 94.7541428,38.4760742 95.9982835,38.4760742 Z M95.9601975,36.9335938 C93.827385,36.9335938 92.1484299,36.1623535 90.9233323,34.619873 C89.6982346,33.0773926 89.0856858,31.0683594 89.0856858,28.5927734 C89.0856858,26.0791016 89.7014085,24.0605469 90.9328538,22.5371094 C92.1642991,21.0136719 93.8527757,20.2519531 95.9982835,20.2519531 C98.1437913,20.2519531 99.8354417,21.0200195 101.073235,22.5561523 C102.311028,24.0922852 102.929924,26.1044922 102.929924,28.5927734 C102.929924,31.09375 102.320549,33.1091309 101.101799,34.638916 C99.8830491,36.1687012 98.1691819,36.9335938 95.9601975,36.9335938 Z M114.810043,38.4760742 C117.755356,38.4760742 119.913559,36.9907227 121.284653,34.0200195 L121.284653,37.2192383 C121.284653,37.4858398 121.376694,37.6921387 121.560776,37.8381348 C121.744858,37.9841309 121.976547,38.0571289 122.255844,38.0571289 C122.573227,38.0571289 122.858872,37.9714355 123.112778,37.8000488 C123.366684,37.6286621 123.493637,37.4033203 123.493637,37.1240234 L123.493637,24.8984375 C123.493637,22.8164062 122.877915,21.2644043 121.646469,20.2424316 C120.415024,19.220459 118.669418,18.7094727 116.409653,18.7094727 C113.515122,18.7094727 111.141098,19.3378906 109.287583,20.5947266 C109.135239,20.7089844 109.059067,20.8740234 109.059067,21.0898438 C109.059067,21.3056641 109.14476,21.5024414 109.316147,21.6801758 C109.487534,21.8579102 109.681137,21.9467773 109.896958,21.9467773 C110.036606,21.9467773 110.169907,21.9023438 110.29686,21.8134766 C111.375961,21.2675781 112.347153,20.8708496 113.210434,20.623291 C114.073715,20.3757324 115.140122,20.2519531 116.409653,20.2519531 C117.9077,20.2519531 119.107407,20.6137695 120.008774,21.3374023 C120.910141,22.0610352 121.360825,23.1655273 121.360825,24.6508789 L121.360825,27.3549805 C119.202622,27.3549805 117.403061,27.4089355 115.962143,27.5168457 C114.521225,27.6247559 113.267563,27.7993164 112.201157,28.0405273 C111.134751,28.2817383 110.312729,28.6213379 109.735092,29.0593262 C109.157456,29.4973145 108.735336,30.0273438 108.468735,30.6494141 C108.202133,31.2714844 108.068833,32.0458984 108.068833,32.9726562 C108.068833,34.7373047 108.681381,36.0957031 109.906479,37.0478516 C111.131577,38 112.766098,38.4760742 114.810043,38.4760742 Z M115.152817,36.9335938 C111.826645,36.9335938 110.163559,35.5751953 110.163559,32.8583984 C110.163559,31.7158203 110.47142,30.8588867 111.087143,30.2875977 C111.702866,29.7163086 112.794663,29.3100586 114.362534,29.0688477 C115.930405,28.8276367 118.269516,28.7070312 121.379868,28.7070312 L121.379868,29.4116211 C121.379868,31.5952148 120.760971,33.3947754 119.523178,34.8103027 C118.285385,36.2258301 116.828598,36.9335938 115.152817,36.9335938 Z M131.203346,38 C131.508034,38 131.771462,37.9111328 131.99363,37.7333984 C132.215798,37.5556641 132.326882,37.3144531 132.326882,37.0097656 L132.326882,25.6411133 C132.326882,25.3237305 132.371315,24.9650879 132.460182,24.5651855 C132.54905,24.1652832 132.717263,23.7177734 132.964821,23.2226562 C133.21238,22.7275391 133.523415,22.2768555 133.897927,21.8706055 C134.272438,21.4643555 134.786598,21.1247559 135.440407,20.8518066 C136.094216,20.5788574 136.82737,20.4423828 137.63987,20.4423828 C138.020729,20.4423828 138.300026,20.3598633 138.477761,20.1948242 C138.655495,20.0297852 138.744362,19.8203125 138.744362,19.5664062 C138.744362,19.4140625 138.693581,19.2744141 138.592018,19.1474609 C138.490456,19.0205078 138.357155,18.8967285 138.192116,18.776123 C138.027077,18.6555176 137.919167,18.5698242 137.868386,18.519043 C136.344948,18.519043 135.11985,18.9094238 134.193093,19.6901855 C133.266335,20.4709473 132.65696,21.4516602 132.364968,22.6323242 L132.326882,20.4233398 C132.314186,20.0678711 132.199929,19.7949219 131.984108,19.6044922 C131.768288,19.4140625 131.508034,19.3188477 131.203346,19.3188477 C130.911354,19.3188477 130.660622,19.4077148 130.451149,19.5854492 C130.241677,19.7631836 130.13694,20.0107422 130.13694,20.328125 L130.13694,37.0097656 C130.13694,37.3398438 130.238503,37.5874023 130.441628,37.7524414 C130.644753,37.9174805 130.898659,38 131.203346,38 Z M150.186493,38.4760742 C151.671845,38.4760742 153.033417,38.1079102 154.27121,37.371582 C155.509003,36.6352539 156.426239,35.581543 157.022919,34.2104492 L157.022919,36.9716797 C157.022919,37.0986328 157.038788,37.2192383 157.070526,37.3334961 C157.102265,37.4477539 157.213349,37.5715332 157.403778,37.704834 C157.594208,37.8381348 157.854462,37.9047852 158.18454,37.9047852 C158.489228,37.9047852 158.73996,37.8286133 158.936737,37.6762695 C159.133515,37.5239258 159.231903,37.2954102 159.231903,36.9907227 L159.231903,12.0063477 C159.231903,11.7016602 159.120819,11.4604492 158.898651,11.2827148 C158.676483,11.1049805 158.419403,11.0161133 158.127411,11.0161133 C157.835419,11.0161133 157.578339,11.1049805 157.356171,11.2827148 C157.134003,11.4604492 157.022919,11.7016602 157.022919,12.0063477 L157.022919,22.9750977 C156.540497,21.6674805 155.696259,20.6296387 154.490204,19.8615723 C153.284149,19.0935059 151.957489,18.7094727 150.510224,18.7094727 C149.151825,18.7094727 147.923554,18.9887695 146.825409,19.5473633 C145.727265,20.105957 144.838593,20.8486328 144.159394,21.7753906 C143.480194,22.7021484 142.96286,23.7399902 142.607392,24.888916 C142.251923,26.0378418 142.074189,27.2407227 142.074189,28.4975586 C142.074189,29.5766602 142.172577,30.6018066 142.369355,31.572998 C142.566132,32.5441895 142.877167,33.4550781 143.30246,34.3056641 C143.727753,35.15625 144.254608,35.8862305 144.883026,36.4956055 C145.511444,37.1049805 146.276337,37.5874023 147.177704,37.9428711 C148.079071,38.2983398 149.082001,38.4760742 150.186493,38.4760742 Z M150.186493,36.9335938 C149.107392,36.9082031 148.164765,36.6447754 147.358612,36.1433105 C146.55246,35.6418457 145.933564,34.9785156 145.501923,34.1533203 C145.070282,33.328125 144.756073,32.4616699 144.559296,31.5539551 C144.362519,30.6462402 144.26413,29.690918 144.26413,28.6879883 C144.26413,27.6469727 144.378388,26.6503906 144.606903,25.6982422 C144.835419,24.7460938 145.18454,23.8510742 145.654267,23.0131836 C146.123993,22.175293 146.780976,21.5056152 147.625214,21.0041504 C148.469452,20.5026855 149.443817,20.2519531 150.54831,20.2519531 C151.652802,20.2519531 152.630341,20.4868164 153.480927,20.956543 C154.331513,21.4262695 155.007538,22.0578613 155.509003,22.8513184 C156.010468,23.6447754 156.38498,24.5175781 156.632538,25.4697266 C156.880097,26.421875 157.003876,27.4248047 157.003876,28.4785156 C157.003876,29.3544922 156.937226,30.1860352 156.803925,30.9731445 C156.670624,31.7602539 156.438935,32.5219727 156.108857,33.2583008 C155.778778,33.9946289 155.359833,34.6293945 154.852021,35.1625977 C154.344208,35.6958008 153.693573,36.1242676 152.900116,36.447998 C152.106659,36.7717285 151.202118,36.9335938 150.186493,36.9335938 Z M172.559288,38.4189453 C173.981163,38.4189453 175.231652,38.2285156 176.310753,37.8476562 C177.389855,37.4667969 178.262658,36.8415527 178.929161,35.9719238 C179.595665,35.1022949 179.928917,34.0327148 179.928917,32.7631836 C179.928917,32.1791992 179.862267,31.6491699 179.728966,31.1730957 C179.595665,30.6970215 179.360802,30.2272949 179.024376,29.763916 C178.687951,29.3005371 178.192833,28.8879395 177.539025,28.526123 C176.885216,28.1643066 176.082238,27.8691406 175.130089,27.640625 L171.473839,26.7456055 C169.785363,26.3393555 168.709435,25.9648438 168.246056,25.6220703 C167.782677,25.2792969 167.550988,24.6572266 167.550988,23.7558594 C167.550988,21.4960938 169.334679,20.3662109 172.902062,20.3662109 C173.346398,20.3662109 173.793908,20.3979492 174.244591,20.4614258 C174.695275,20.5249023 175.130089,20.6169434 175.549035,20.7375488 C175.96798,20.8581543 176.304406,20.9628906 176.558312,21.0517578 C176.812218,21.140625 177.126427,21.2580566 177.500939,21.4040527 C177.875451,21.5500488 178.088097,21.6357422 178.138878,21.6611328 C178.278527,21.7119141 178.424523,21.7373047 178.576867,21.7373047 C178.818077,21.7373047 179.005333,21.6643066 179.138634,21.5183105 C179.271935,21.3723145 179.338585,21.1977539 179.338585,20.9946289 C179.338585,20.6772461 179.186242,20.4296875 178.881554,20.2519531 C178.284874,19.9091797 177.412072,19.5791016 176.263146,19.2617188 C175.11422,18.9443359 173.93673,18.7856445 172.730675,18.7856445 C171.803917,18.7856445 170.934288,18.8681641 170.121788,19.0332031 C169.309288,19.1982422 168.538048,19.4616699 167.808068,19.8234863 C167.078087,20.1853027 166.500451,20.7089844 166.075158,21.3945312 C165.649865,22.0800781 165.437218,22.8862305 165.437218,23.8129883 C165.437218,24.4477539 165.526085,25.0063477 165.70382,25.4887695 C165.881554,25.9711914 166.11007,26.3647461 166.389367,26.6694336 C166.668663,26.9741211 167.05587,27.2502441 167.550988,27.4978027 C168.046105,27.7453613 168.522179,27.9389648 168.97921,28.0786133 C169.436242,28.2182617 170.026574,28.3706055 170.750206,28.5356445 L174.482628,29.4306641 C175.802941,29.7353516 176.729699,30.1542969 177.262902,30.6875 C177.796105,31.2207031 178.062706,31.9824219 178.062706,32.9726562 C178.062706,34.2167969 177.605675,35.1721191 176.691613,35.838623 C175.77755,36.505127 174.495324,36.8383789 172.844933,36.8383789 C170.724816,36.8383789 168.782433,36.2861328 167.017785,35.1816406 C166.763878,35.0039062 166.51632,34.9150391 166.275109,34.9150391 C166.046593,34.9150391 165.856163,34.9880371 165.70382,35.1340332 C165.551476,35.2800293 165.475304,35.4545898 165.475304,35.6577148 C165.475304,35.9624023 165.627648,36.2290039 165.932335,36.4575195 C166.567101,36.9526367 167.528771,37.4033203 168.817345,37.8095703 C170.105919,38.2158203 171.353234,38.4189453 172.559288,38.4189453 Z M193.56099,38.4760742 C194.80513,38.4760742 195.973099,38.2666016 197.064896,37.8476562 C198.156693,37.4287109 199.127884,36.8225098 199.97847,36.0290527 C200.829056,35.2355957 201.498734,34.2009277 201.987504,32.9250488 C202.476273,31.6491699 202.720658,30.2050781 202.720658,28.5927734 C202.720658,27.03125 202.479447,25.6157227 201.997025,24.3461914 C201.514603,23.0766602 200.854447,22.0356445 200.016556,21.2231445 C199.178666,20.4106445 198.210648,19.7885742 197.112504,19.3569336 C196.014359,18.925293 194.830521,18.7094727 193.56099,18.7094727 C192.304154,18.7094727 191.129838,18.9221191 190.038041,19.3474121 C188.946244,19.7727051 187.978226,20.3884277 187.133988,21.1945801 C186.28975,22.0007324 185.62642,23.0385742 185.143998,24.3081055 C184.661576,25.5776367 184.420365,27.0058594 184.420365,28.5927734 C184.420365,30.1923828 184.66475,31.630127 185.153519,32.9060059 C185.642289,34.1818848 186.311966,35.2197266 187.162552,36.0195312 C188.013138,36.8193359 188.981156,37.4287109 190.066605,37.8476562 C191.152054,38.2666016 192.316849,38.4760742 193.56099,38.4760742 Z M193.522904,36.9335938 C191.390091,36.9335938 189.711136,36.1623535 188.486039,34.619873 C187.260941,33.0773926 186.648392,31.0683594 186.648392,28.5927734 C186.648392,26.0791016 187.264115,24.0605469 188.49556,22.5371094 C189.727005,21.0136719 191.415482,20.2519531 193.56099,20.2519531 C195.706498,20.2519531 197.398148,21.0200195 198.635941,22.5561523 C199.873734,24.0922852 200.49263,26.1044922 200.49263,28.5927734 C200.49263,31.09375 199.883255,33.1091309 198.664505,34.638916 C197.445755,36.1687012 195.731888,36.9335938 193.522904,36.9335938 Z M214.258004,38.4760742 C215.73066,38.4760742 217.041451,38.1079102 218.190377,37.371582 C219.339303,36.6352539 220.104195,35.6005859 220.485055,34.2675781 L220.485055,36.9907227 C220.485055,37.3081055 220.596139,37.5556641 220.818307,37.7333984 C221.040474,37.9111328 221.291207,38 221.570504,38 C221.875191,38 222.138619,37.9111328 222.360787,37.7333984 C222.582955,37.5556641 222.694039,37.3017578 222.694039,36.9716797 L222.694039,20.2329102 C222.694039,19.9155273 222.589303,19.6711426 222.37983,19.4997559 C222.170357,19.3283691 221.919625,19.2426758 221.627633,19.2426758 C221.33564,19.2426758 221.072213,19.3347168 220.837349,19.5187988 C220.602486,19.7028809 220.485055,19.940918 220.485055,20.2329102 L220.485055,31.1254883 C220.294625,33.0043945 219.669381,34.4421387 218.609322,35.4387207 C217.549264,36.4353027 216.194039,36.9335938 214.543648,36.9335938 C212.817086,36.9335938 211.557076,36.4321289 210.763619,35.4291992 C209.970162,34.4262695 209.573433,32.9599609 209.573433,31.0302734 L209.573433,20.2329102 C209.573433,19.9155273 209.465523,19.6711426 209.249703,19.4997559 C209.033883,19.3283691 208.773629,19.2426758 208.468941,19.2426758 C208.176949,19.2426758 207.923043,19.3283691 207.707223,19.4997559 C207.491402,19.6711426 207.383492,19.9155273 207.383492,20.2329102 L207.383492,30.9921875 C207.383492,35.9814453 209.674996,38.4760742 214.258004,38.4760742 Z M230.841736,38 C231.146424,38 231.409852,37.9111328 231.63202,37.7333984 C231.854188,37.5556641 231.965272,37.3144531 231.965272,37.0097656 L231.965272,25.6411133 C231.965272,25.3237305 232.009705,24.9650879 232.098572,24.5651855 C232.18744,24.1652832 232.355652,23.7177734 232.603211,23.2226562 C232.85077,22.7275391 233.161805,22.2768555 233.536317,21.8706055 C233.910828,21.4643555 234.424988,21.1247559 235.078797,20.8518066 C235.732606,20.5788574 236.46576,20.4423828 237.27826,20.4423828 C237.659119,20.4423828 237.938416,20.3598633 238.116151,20.1948242 C238.293885,20.0297852 238.382752,19.8203125 238.382752,19.5664062 C238.382752,19.4140625 238.331971,19.2744141 238.230408,19.1474609 C238.128846,19.0205078 237.995545,18.8967285 237.830506,18.776123 C237.665467,18.6555176 237.557557,18.5698242 237.506776,18.519043 C235.983338,18.519043 234.75824,18.9094238 233.831483,19.6901855 C232.904725,20.4709473 232.29535,21.4516602 232.003358,22.6323242 L231.965272,20.4233398 C231.952576,20.0678711 231.838318,19.7949219 231.622498,19.6044922 C231.406678,19.4140625 231.146424,19.3188477 230.841736,19.3188477 C230.549744,19.3188477 230.299012,19.4077148 230.089539,19.5854492 C229.880067,19.7631836 229.77533,20.0107422 229.77533,20.328125 L229.77533,37.0097656 C229.77533,37.3398438 229.876893,37.5874023 230.080018,37.7524414 C230.283143,37.9174805 230.537049,38 230.841736,38 Z M250.167657,38.5332031 C252.554375,38.5332031 254.46502,37.9873047 255.89959,36.8955078 C256.293145,36.6035156 256.489922,36.3115234 256.489922,36.0195312 C256.489922,35.8291016 256.410577,35.6672363 256.251885,35.5339355 C256.093194,35.4006348 255.912286,35.3339844 255.709161,35.3339844 C255.544121,35.3339844 255.391778,35.378418 255.252129,35.4672852 C253.804864,36.4448242 252.160821,36.9335938 250.32,36.9335938 C249.342461,36.9335938 248.469659,36.7526855 247.701592,36.3908691 C246.933526,36.0290527 246.317803,35.5656738 245.854424,35.0007324 C245.391045,34.435791 245.007012,33.7788086 244.702325,33.0297852 C244.397637,32.2807617 244.188164,31.5603027 244.073907,30.8684082 C243.959649,30.1765137 243.90252,29.4814453 243.90252,28.7832031 C243.90252,26.0664062 244.575371,23.9621582 245.921075,22.470459 C247.266778,20.9787598 248.929864,20.2329102 250.910332,20.2329102 C252.548028,20.2329102 253.988946,20.715332 255.233086,21.6801758 C255.448907,21.8833008 255.68377,21.9848633 255.937676,21.9848633 C256.128106,21.9848633 256.283623,21.9309082 256.404229,21.822998 C256.524834,21.7150879 256.585137,21.565918 256.585137,21.3754883 C256.585137,21.0961914 256.451836,20.8168945 256.185235,20.5375977 C255.626641,19.9790039 254.874444,19.534668 253.928643,19.2045898 C252.982842,18.8745117 252.014825,18.7094727 251.02459,18.7094727 C248.193536,18.7094727 245.93377,19.6298828 244.245293,21.4707031 C242.556817,23.3115234 241.712579,25.6918945 241.712579,28.6118164 C241.712579,31.5698242 242.455254,33.9628906 243.940606,35.7910156 C245.425957,37.6191406 247.501641,38.5332031 250.167657,38.5332031 Z M269.455491,38.4760742 C270.471116,38.4760742 271.410569,38.3808594 272.27385,38.1904297 C273.137132,38 273.879807,37.7333984 274.501878,37.390625 C275.123948,37.0478516 275.625413,36.7304688 276.006272,36.4384766 C276.387132,36.1464844 276.767991,35.8037109 277.14885,35.4101562 C277.415452,35.1435547 277.548753,34.8642578 277.548753,34.5722656 C277.548753,34.3691406 277.485276,34.2041016 277.358323,34.0771484 C277.23137,33.9501953 277.066331,33.8867188 276.863206,33.8867188 C276.621995,33.8867188 276.374436,33.9946289 276.12053,34.2104492 C275.168382,35.0356445 274.200364,35.673584 273.216477,36.1242676 C272.23259,36.5749512 271.010667,36.800293 269.550706,36.800293 C268.674729,36.7749023 267.836839,36.597168 267.037034,36.2670898 C266.237229,35.9370117 265.513596,35.4609375 264.866135,34.8388672 C264.218674,34.2167969 263.704514,33.4138184 263.323655,32.4299316 C262.942796,31.4460449 262.752366,30.3447266 262.752366,29.1259766 L262.752366,28.8212891 L276.767991,28.8212891 C277.14885,28.8212891 277.44719,28.748291 277.66301,28.6022949 C277.878831,28.4562988 277.986741,28.2753906 277.986741,28.0595703 C277.720139,21.8261719 274.908128,18.7094727 269.550706,18.7094727 C267.709885,18.7094727 266.094407,19.1760254 264.70427,20.1091309 C263.314133,21.0422363 262.269944,22.2609863 261.571702,23.7653809 C260.87346,25.2697754 260.524339,26.9296875 260.524339,28.7451172 C260.524339,30.2050781 260.768723,31.5539551 261.257493,32.791748 C261.746262,34.029541 262.400071,35.0578613 263.218919,35.876709 C264.037766,36.6955566 264.986741,37.3334961 266.065842,37.7905273 C267.144944,38.2475586 268.274827,38.4760742 269.455491,38.4760742 Z M275.987229,27.3740234 L262.847581,27.3740234 C262.911057,26.421875 263.107835,25.5236816 263.437913,24.6794434 C263.767991,23.8352051 264.215501,23.079834 264.780442,22.4133301 C265.345383,21.7468262 266.059495,21.2199707 266.922776,20.8327637 C267.786057,20.4455566 268.738206,20.2519531 269.779221,20.2519531 C271.75969,20.2519531 273.260911,20.9025879 274.282883,22.2038574 C275.304856,23.505127 275.872971,25.2285156 275.987229,27.3740234 Z" id="Boardsource" fill="#000" fill-rule="nonzero"></path>
            <path d="M23.5,1 C36.4786916,1 47,11.5213084 47,24.5 C47,37.4786916 36.4786916,48 23.5,48 C10.5213084,48 0,37.4786916 0,24.5 C0,11.5213084 10.5213084,1 23.5,1 Z M23.5,5 C12.7304474,5 4,13.7304474 4,24.5 C4,35.2695526 12.7304474,44 23.5,44 C34.2695526,44 43,35.2695526 43,24.5 C43,13.7304474 34.2695526,5 23.5,5 Z" id="Combined-Shape" fill="#000"></path>
            <circle id="Oval" fill="#000" cx="23.5" cy="24.5" r="3.5"></circle>
        </g>
    </g>
</svg>