<?xml version="1.0" standalone="no"?>
<!DOCTYPE svg PUBLIC "-//W3C//DTD SVG 20010904//EN"
 "http://www.w3.org/TR/2001/REC-SVG-20010904/DTD/svg10.dtd">
<svg version="1.0" xmlns="http://www.w3.org/2000/svg"
 width="220.000000pt" height="220.000000pt" viewBox="0 0 220.000000 220.000000"
 preserveAspectRatio="xMidYMid meet">

<g transform="translate(0.000000,220.000000) scale(0.100000,-0.100000)"
fill="#000000" stroke="none">
<path d="M325 1420 c-105 -6 -175 -21 -202 -43 -10 -7 -13 -75 -13 -276 0
-146 4 -271 8 -277 16 -25 56 -34 151 -34 l101 0 25 -40 25 -40 181 0 c174 0
184 -1 240 -26 38 -17 67 -24 83 -20 27 7 73 76 128 192 l33 69 1 180 2 180
-8 -160 c-8 -182 -17 -224 -67 -315 -73 -135 -101 -153 -171 -110 -29 18 -50
20 -221 20 l-189 0 -23 38 c-13 20 -28 40 -33 44 -6 4 -59 8 -118 8 -147 0
-138 -18 -138 283 0 143 4 246 10 257 15 28 38 38 115 50 74 12 811 17 823 6
3 -4 9 -31 13 -59 l6 -52 2 48 c2 93 24 87 -337 85 -174 -1 -366 -4 -427 -8z"/>
<path d="M1223 1423 c-36 -3 -53 -9 -58 -21 -14 -34 -18 -307 -6 -397 13 -96
47 -183 115 -289 42 -66 61 -70 141 -31 48 24 59 25 232 25 l183 0 26 40 27
40 92 0 c114 0 150 11 164 52 15 42 15 479 0 511 -27 59 -87 68 -504 71 -198
2 -383 2 -412 -1z m849 -35 c20 -9 41 -25 47 -36 7 -13 11 -109 11 -263 0
-212 -2 -245 -17 -261 -13 -15 -32 -18 -115 -18 -55 0 -108 -4 -118 -10 -10
-5 -28 -26 -40 -45 l-22 -35 -181 0 c-169 -1 -186 -2 -237 -25 -69 -30 -79
-25 -141 79 -75 125 -82 153 -87 384 -2 111 -1 214 2 228 l7 25 427 -3 c372
-3 432 -5 464 -20z"/>
</g>
</svg>
