<?xml version="1.0" standalone="no"?>
<!DOCTYPE svg PUBLIC "-//W3C//DTD SVG 20010904//EN"
 "http://www.w3.org/TR/2001/REC-SVG-20010904/DTD/svg10.dtd">
<svg version="1.0" xmlns="http://www.w3.org/2000/svg"
 width="432.000000pt" height="432.000000pt" viewBox="0 0 432.000000 432.000000"
 preserveAspectRatio="xMidYMid meet">

<g transform="translate(0.000000,432.000000) scale(0.100000,-0.100000)"
fill="#000000" stroke="none">
<path d="M1986 3544 c-3 -8 -6 -38 -6 -65 l0 -50 -127 3 -128 3 -3 30 c-2 17
-8 36 -14 43 -14 17 -659 17 -709 0 -96 -33 -129 -92 -129 -229 0 -106 6 -119
57 -119 l33 0 0 -924 0 -925 -42 -3 -43 -3 0 -116 c0 -112 1 -117 29 -153 60
-79 46 -76 456 -74 l365 3 5 40 5 40 109 3 c69 2 113 -1 122 -8 7 -7 14 -35
16 -63 l3 -52 165 0 165 0 3 52 c2 28 9 56 16 63 9 7 55 10 127 8 l114 -3 3
-42 3 -43 361 0 361 0 41 24 c23 14 51 42 64 64 20 37 22 52 20 149 l-3 108
-42 3 -43 3 0 925 0 924 29 0 c60 0 61 3 61 119 0 125 -13 159 -79 206 l-43
30 -350 3 c-256 2 -354 0 -364 -9 -8 -6 -14 -27 -14 -46 l0 -34 -127 3 -128 3
-5 60 -5 60 -161 3 c-141 2 -162 0 -168 -14z m312 -61 l3 -53 -145 0 -146 0 0
55 0 56 143 -3 142 -3 3 -52z m-608 -23 l0 -30 -293 0 c-284 0 -294 -1 -337
-22 -60 -31 -87 -74 -95 -153 -7 -63 -8 -65 -36 -65 -36 0 -43 25 -37 121 4
51 12 79 31 107 46 71 51 72 430 72 l337 0 0 -30z m1647 4 c15 -11 38 -38 51
-60 19 -33 22 -51 20 -124 l-3 -85 -32 -3 c-33 -3 -33 -3 -33 40 0 90 -43 161
-113 187 -18 7 -139 11 -323 11 l-294 0 0 30 0 31 349 -3 c337 -3 351 -4 378
-24z m-98 -82 c19 -10 43 -34 53 -53 17 -32 18 -86 18 -1087 0 -1143 3 -1078
-55 -1132 l-27 -25 -1067 -3 -1068 -2 -34 23 c-74 49 -69 -29 -69 1137 0 1166
-5 1088 69 1137 l34 23 1056 0 c1004 0 1058 -1 1090 -18z m-2274 -2163 c13
-79 43 -125 99 -150 37 -17 70 -19 339 -19 l297 0 0 -35 0 -35 -335 0 c-365 0
-376 1 -427 56 -32 36 -48 90 -48 170 0 64 12 87 45 82 16 -2 22 -15 30 -69z
m2429 65 c13 -5 16 -23 16 -88 0 -103 -25 -160 -85 -193 -40 -23 -44 -23 -380
-20 l-340 2 -3 33 -3 32 293 0 c168 0 309 4 330 10 68 19 118 101 118 193 0
38 14 46 54 31z m-1094 -283 c0 -35 -4 -51 -16 -55 -9 -3 -71 -6 -139 -6 -139
0 -145 3 -145 74 l0 36 150 0 150 0 0 -49z"/>
<path d="M1178 3380 c-53 -16 -97 -51 -117 -94 -20 -39 -21 -60 -21 -299 0
-190 3 -258 12 -263 7 -5 59 -14 115 -20 57 -7 108 -16 113 -19 6 -4 10 -168
10 -455 l0 -450 -22 -4 c-13 -3 -63 -8 -111 -11 -49 -3 -95 -9 -103 -12 -13
-5 -15 -40 -12 -237 3 -223 4 -232 26 -264 39 -54 73 -66 192 -67 l105 0 0 45
0 45 -87 5 c-136 8 -133 3 -133 253 l0 202 80 10 80 10 3 469 c1 326 -1 473
-9 482 -6 7 -27 14 -47 16 l-37 3 0 230 0 230 65 3 c38 2 71 9 80 17 25 22
1555 21 1584 0 13 -10 43 -15 83 -15 l63 0 0 -235 0 -235 -31 0 c-17 0 -39 -5
-50 -10 -18 -10 -19 -26 -19 -473 0 -254 4 -467 8 -473 4 -7 42 -15 85 -19
l77 -7 0 -199 c0 -194 0 -198 -24 -226 -22 -25 -31 -28 -112 -33 l-89 -5 0
-45 0 -45 82 -3 c46 -2 102 2 125 8 52 15 103 64 117 115 16 58 15 416 -1 438
-10 13 -38 18 -121 23 -89 6 -110 10 -117 25 -12 22 -13 868 -2 887 5 7 52 18
115 26 58 7 113 18 121 25 14 12 16 47 16 243 0 264 -7 305 -59 357 -43 43
-96 61 -179 61 -91 0 -92 -1 -92 -81 l0 -69 -785 0 -785 0 0 63 c0 36 -5 68
-12 75 -14 14 -137 15 -180 2z m162 -90 l0 -70 -64 0 c-99 0 -96 9 -96 -262
l0 -231 -52 7 c-28 4 -55 9 -60 12 -4 3 -8 112 -8 243 0 230 1 239 23 282 35
65 82 89 180 89 l77 0 0 -70z m1834 36 c62 -47 66 -66 66 -335 0 -132 -4 -242
-8 -245 -5 -3 -32 -8 -60 -12 l-52 -7 0 236 c0 178 -3 238 -12 244 -7 4 -42
10 -78 13 l-65 5 -3 69 -3 68 89 -3 c79 -4 92 -7 126 -33z m-2052 -1802 l3
-216 28 -24 c25 -21 38 -24 108 -24 78 0 79 0 79 -25 0 -25 -1 -25 -89 -25
-75 0 -93 3 -121 23 -64 43 -70 68 -70 287 0 202 3 220 41 220 16 0 18 -18 21
-216z m2102 210 c14 -5 16 -34 16 -213 0 -188 -2 -209 -20 -239 -34 -56 -73
-72 -172 -72 -87 0 -88 0 -88 25 0 25 1 25 81 25 76 0 82 2 110 29 l29 29 0
205 c0 112 3 207 7 210 8 9 17 9 37 1z"/>
<path d="M1552 2694 l-22 -15 0 -439 0 -439 26 -20 c26 -21 35 -21 595 -21
312 0 575 3 584 6 43 17 45 42 45 477 0 404 -1 415 -21 441 l-20 26 -583 0
c-510 0 -584 -2 -604 -16z m1180 -21 c17 -15 18 -42 18 -438 0 -314 -3 -424
-12 -433 -9 -9 -154 -12 -590 -12 -561 0 -578 1 -588 19 -6 13 -10 166 -10
430 0 398 1 412 20 431 20 20 33 20 582 20 508 0 563 -2 580 -17z"/>
<path d="M2068 2569 c-15 -8 -18 -25 -18 -109 l0 -100 -104 0 c-133 0 -136 -2
-136 -113 0 -133 -6 -126 124 -129 l111 -3 5 -102 c3 -56 8 -104 12 -108 9
-10 169 -8 179 2 4 4 10 53 11 108 l3 100 115 5 115 5 3 105 c3 131 5 130
-135 130 l-103 0 0 98 c0 63 -4 102 -12 110 -15 15 -146 16 -170 1z m152 -110
c0 -131 -2 -129 130 -129 l110 0 0 -95 0 -95 -110 0 c-132 0 -130 2 -130 -129
l0 -91 -70 0 -69 0 -3 108 -3 107 -115 5 -115 5 -3 93 -3 92 109 0 c71 0 112
4 120 12 8 8 12 47 12 110 l0 98 70 0 70 0 0 -91z"/>
<path d="M2093 1710 c-45 -9 -118 -43 -128 -60 -4 -6 -80 -10 -201 -10 -229 0
-256 -7 -274 -67 -7 -23 -10 -93 -8 -181 3 -143 3 -144 31 -168 28 -24 31 -24
225 -24 222 0 245 -6 250 -57 l3 -32 80 -3 c43 -2 115 -2 159 0 76 3 80 5 80
27 0 14 11 32 26 44 25 20 40 21 226 21 l200 0 29 29 29 29 0 157 c0 88 -4
165 -10 176 -23 43 -57 49 -268 49 -158 0 -202 3 -211 14 -18 21 -100 54 -151
59 -25 3 -64 2 -87 -3z m127 -30 c20 -5 57 -23 83 -40 l48 -30 201 0 c173 0
204 -2 220 -17 16 -14 18 -34 18 -173 0 -137 -2 -159 -18 -173 -14 -13 -52
-16 -224 -19 -203 -3 -207 -3 -232 -27 -14 -14 -26 -35 -26 -48 l0 -24 -137 3
-138 3 -3 25 c-2 15 -16 34 -36 48 -31 21 -41 22 -234 22 -250 0 -232 -15
-232 192 0 202 -18 188 242 188 201 0 202 0 239 26 73 50 152 65 229 44z"/>
</g>
</svg>
